<svg width="25" height="22" viewBox="0 0 25 22" fill="none" xmlns="http://www.w3.org/2000/svg">
<path d="M23.7939 9.99463H1.00538C0.450104 9.99463 0 10.445 0 11C0 11.555 0.450055 12.0054 1.00538 12.0054H23.7939C24.3492 12.0054 24.7993 11.5553 24.7993 11C24.7993 10.4447 24.3492 9.99463 23.7939 9.99463Z" fill="black"/>
<path d="M24.7054 10.2889L14.8531 0.436173C14.4603 0.0437365 13.8243 0.0437365 13.4315 0.436173C13.0387 0.828952 13.0387 1.46568 13.4315 1.85812L22.573 11L13.4315 20.1419C13.0387 20.5343 13.0387 21.1711 13.4315 21.5635C13.6279 21.7599 13.8849 21.8581 14.1423 21.8581C14.3997 21.8581 14.6567 21.7599 14.8531 21.5635L24.7054 11.7108C25.0982 11.3181 25.0982 10.6813 24.7054 10.2889Z" fill="black"/>
</svg>
